<svg viewBox="0 0 1024 1024" xmlns="http://www.w3.org/2000/svg">
  <path d="M559.30072999 987.2550575l-1.61362593-8.47681312c-1.48891031-7.82253655-2.98549594-15.64411313-4.48304063-23.46473063-3.18791812-16.65814594-6.48520313-33.8832675-9.64721905-50.85320156-19.94391844-107.01256594-50.95297406-210.38056219-92.19637126-307.34777813-9.25388625 4.43411344-18.59986969 8.81834156-27.69258468 13.08265032-25.49183625 11.95637344-51.85188469 24.32143031-76.70863125 38.05643812-29.64102375 16.38089344-58.56349406 35.69835657-86.53333032 54.37977094-3.09198375 2.06452031-6.1830075 4.12999969-9.27403218 6.19068281-20.46868219 13.6400325-40.81744594 28.39099125-60.49562438 42.65555906-5.78199937 4.19043844-11.56304062 8.38087781-17.35751156 12.55308938-0.26669906 0.21873187-0.74541469 0.93536625-0.85573969 1.30087781-14.59458469 58.34764031-20.78910469 112.22854875-18.93084469 164.69825437 0.28108969 7.93478063 0.64852031 15.77266594 1.03705688 24.07199907 0.18131719 3.86905687 0.3645525 7.78608094 0.5420325 11.77409718l0.45665062 10.26695907-38.52460031 2.26694343-3.08814656-37.1133975 0-56.95370531 0.16788656-0.92481281c0.11416219-0.6302925 0.25134937-1.260585 0.39141469-1.88991844 0.110325-0.49694345 0.25998375-1.17616219 0.28012969-1.416 1.35556125-33.74895844 7.65464999-66.968355 13.74652031-99.09505312 0.96606469-5.09606531 1.93308937-10.19404875 2.88092719-15.29586938 8.99582063-48.41165719 29.06061657-92.32108594 61.34272968-134.2369875 19.22440594-24.96131625 40.51716938-49.31344594 63.43890844-72.56232281-9.99258469-0.97278-20.53871438-2.85214594-31.88302312-5.66975625-45.22565719-11.23494281-75.12666375-38.18115281-88.871265-80.09033906-13.02221063-39.70651875-14.32884469-81.56581875-3.8824875-124.41612563 7.37068313-30.23390156 24.58717031-58.05120094 54.181185-87.54160687 3.2637075-3.252195 6.55811344-6.30964219 9.97339781-9.42465-1.08982125-0.75021094-2.17196719-1.45821094-3.25507313-2.11344751-25.59352781-15.4541625-31.01385281-46.06412812-25.21842187-67.96512 6.90923531-26.1173325 25.07835657-43.871055 54.00082781-52.76998218 12.59050406-3.87385313 26.0281125-5.67743063 42.28812844-5.67743062 9.41026031 0 18.89247094 0.62261813 26.92798313 1.23180468 16.00195031 1.21357687 32.54785219 2.4674475 48.99494156 3.98130094 0.72814594 0.06715406 1.43134969 0.10073156 2.08946344 0.10073156 4.55115469 0 7.88489437-1.29704062 11.45847093-7.92614625 5.98538156-11.10543094 13.16899125-22.47276375 21.35128407-33.78637312 14.30390156-19.77891001 32.47686094-32.68408031 54.01425843-38.35767375 2.832-0.74637375 5.63521969-1.36131655 8.34538219-1.95611344 1.19247188-0.26190281 2.38494281-0.52380469 3.57549563-0.79530094l1.14738187-0.26190281 23.06851969 0 1.15409719 0.26574c3.38266687 0.77803219 6.87757687 1.52536594 10.25832468 2.24871563 7.720845 1.65008156 15.70455188 3.35676375 23.57505657 5.67743062 27.544845 8.12185312 50.93282719 21.38677969 69.51542812 39.42734813 35.79525094 34.75243781 47.38035657 77.23051781 34.43393344 126.25423968-11.74627594 44.48407969-29.73312094 90.64030594-56.15456719 143.90914969 20.50417781-8.60152781 39.06471375-14.47754438 57.24246938-18.17679656 8.40294281-1.71052031 16.71091031-2.5777725 24.69461718-2.5777725 29.56235719 0 56.33492531 11.7808125 79.57516782 35.01242156 28.36412906 28.35453563 48.27351094 64.57861594 60.86593312 110.7405975 5.36756063 19.68297469 14.13313781 26.66703938 33.49473094 26.69006438l0.17460187 0c9.91871531 0 19.66186969-0.98812969 28.959885-2.93752875 12.01105687-2.51829281 22.35284438-10.00505625 33.53502282-24.27730032 16.80396656-21.44625938 26.57973937-46.86038906 33.2184375-66.60572156 3.74434125-11.13612938 7.00900781-22.2904875 10.46746312-34.09816125 1.53208125-5.23421156 3.11692687-10.64590219 4.7459025-16.05279656l2.721675-9.03419438 35.20716938 6.880455 0 13.35414563-0.42307313 1.43902406c-0.91234125 3.10445531-1.81796719 6.20986969-2.7255122 9.31528406-1.94172375 6.65500781-3.9496425 13.53450375-5.98825968 20.30655188-8.48065031 28.16842219-19.83838969 60.90814406-39.77271374 90.16254937-17.44001531 25.59256781-36.67881188 40.46056781-60.54934782 46.78939688-11.49588562 3.04785375-23.04069844 4.59240656-34.31209594 4.59240656-7.01476406 0-14.04487781-0.60055313-20.89271437-1.7853497-28.53297469-4.93681312-47.676795-23.04549469-55.36022531-52.36801405-9.07448719-34.63347844-23.2191375-62.97266437-43.24364063-86.63981812-4.23169125-5.00204906-9.05721938-9.55128469-13.2188775-13.340715-13.806-12.57323531-29.10858469-18.68525156-46.78651875-18.68525157-6.57154406 0-13.56616219 0.8739675-20.78622656 2.59791844-32.50276313 7.76113781-63.40245281 20.87256844-94.17838688 39.98760844 4.92721969 3.28769063 9.67695937 6.38734969 14.60897532 9.12053625 31.35538125 17.38245469 55.82646938 43.81925062 74.8119975 80.82328219 17.90434125 34.89538125 27.55156031 73.85360719 29.49520219 119.10132937 1.28169094 29.83577156 6.2501625 53.73029062 15.63739781 75.198615 18.08086125 41.35084406 49.42952719 65.39214375 95.83710281 73.49864813 11.80959281 2.06260125 22.28760937 3.06512156 32.03460094 3.06512156 12.91956094 0 24.59292562-1.74697594 35.685885-5.34165844 22.66751156-7.34574 42.19411219-20.2768125 59.69648625-39.53191781 0.70128469-0.77035781 1.39489406-1.54263375 2.17388624-2.410845l7.69686188-8.55356063 30.75290906 22.98121875-6.52261782 8.38951219c-0.42307312 0.54299156-0.80585344 1.05624375-1.16752874 1.54071563-0.88260187 1.18000031-1.79494313 2.4002925-2.91738187 3.63593437-35.36162437 38.93328281-77.94043594 58.67381906-126.55163813 58.67381906-8.30125219 0-16.90853625-0.57944719-25.58105625-1.72299188-33.74320219-4.44850406-61.23432281-14.61952781-84.04285875-31.0915603-31.7362425-22.92078-52.73736375-55.48494094-64.20159094-99.55362282-4.97230875-19.11887719-6.4276425-38.49486094-7.83404812-57.233835-0.38565844-5.14691063-0.7857075-10.46938219-1.25099156-15.66138188-4.74686156-52.91964094-21.82136531-94.50360656-52.20204657-127.12916624-7.80047156-8.37608063-17.79017813-15.42730031-27.35297437-21.93073125-16.93060125-11.51411344-34.29194999-23.05317001-51.08248594-34.21232438-21.12199969-14.0381625-42.96351094-28.55503969-64.2361275-43.21294125-49.97635594-34.4358525-100.42663031-69.92794875-149.21531156-104.25251718l-19.09489406-13.43185314c-3.53328469 3.58604906-7.12796719 7.12317094-10.62191813 10.56147939-8.55643875 8.41925156-16.63895906 16.3713-23.98949531 25.06204781-22.78551187 26.93757655-32.45191781 60.50042063-29.55084469 102.60531375 1.10804906 16.08733312 3.27330094 29.98734844 6.61663406 42.49342969 7.92902437 29.65445438 26.09143031 48.27063281 55.52427469 56.91245343 16.90565813 4.96367438 30.62531625 7.27570688 43.17552656 7.27570688 8.77900781 0 16.94211281-1.11380437 24.95651907-3.40377188 2.56626-0.73294313 5.28025969-1.80069937 8.1525525-2.92985343 1.526325-0.60055313 3.08239031-1.21069875 4.68930093-1.80645563l7.19991844-2.66795156 21.16708875 27.49495875-6.86318719 6.4708125c-3.81053625 3.59276438-7.62299156 7.14811313-11.42297532 10.6929103-8.02687781 7.48580437-16.32716999 15.22679625-24.20918624 22.97354439-27.50359219 27.0248775-62.50258313 63.60871313-89.24541187 106.99241906-2.676585 4.34105719-5.14499156 8.79627657-7.52801625 13.36757719 84.37479375-60.48123375 161.33957156-104.35324875 239.1485775-136.43197875l-36.50325094-84.33354189 34.52890969-15.68536499 4.41013031 9.22126781c82.36303781 172.20036844 133.53474375 336.41511094 156.44113312 502.02858469l1.30183782 9.41505656-24.08734875 5.63809782L559.30072999 987.25985375zM261.29317906 162.7631825c-14.98791844 0-26.70541406 2.26022719-36.87643781 7.1126175-9.94749563 4.7459025-15.85325156 11.17066594-18.58452 20.21637375-3.04113844 10.07125125-0.61014656 20.27969063 5.91247125 24.82700719 79.30750969 55.28635594 158.63708438 110.5420125 237.96665906 165.79671l28.93590188 20.15401593c1.51865063-1.99736625 3.09102469-3.80286187 4.61447156-5.552715 2.13359344-2.45113781 4.15014656-4.76508937 5.45869875-7.01476406 36.12430781-62.0679975 61.34752594-121.46612625 77.10963938-181.58856281 9.14643844-34.88482781-0.40484531-64.79350969-28.38811314-88.89716813-20.09549531-17.31050345-44.81505562-27.84703969-75.56988374-32.21304-3.29440594-0.46816219-6.53317031-0.70512188-9.62707313-0.70512187-16.48642219 0-30.16099125 6.56482875-41.80653562 20.06959312-3.91414594 4.53964219-7.57406437 9.42752813-10.87614563 14.52838969-4.21250437 6.50630906-8.30988562 13.35318656-12.27199968 19.97461688-1.42847156 2.38590281-2.85598406 4.77180469-4.29404908 7.15099125-8.03647125 13.30042219-20.73346313 20.53775531-36.71910467 20.93012906-1.78822781 0.04317094-3.63017906 0.066195-5.47213032 0.06619499-5.99401594 0-12.17414625-0.22544719-18.89247093-0.68977218-6.99365812-0.48351188-14.05351219-1.09078031-20.88024282-1.67886187-10.18925156-0.87684562-20.72482875-1.78439063-31.00521843-2.2679025C266.89386219 162.83513375 264.03596 162.7631825 261.29317906 162.7631825z" fill="#885A38"/>
</svg>
